<svg width="197" height="43" viewBox="0 0 197 43" fill="none" xmlns="http://www.w3.org/2000/svg">
<circle cx="20.5" cy="20.5" r="20.5" fill="#D9D9D9"/>
<circle cx="72.5" cy="22.5" r="20.5" fill="#D9D9D9"/>
<g clip-path="url(#clip0_12_134)">
<path d="M24.4678 23.6875L25.001 20.2489H21.6669V18.0176C21.6669 17.0768 22.1326 16.1599 23.6259 16.1599H25.1416V13.2323C25.1416 13.2323 23.7661 13 22.451 13C19.7053 13 17.9105 14.6469 17.9105 17.6283V20.2489H14.8584V23.6875H17.9105V32H21.6669V23.6875H24.4678Z" fill="black"/>
</g>
<circle cx="124.5" cy="22.5" r="20.5" fill="#D9D9D9"/>
<circle cx="176.5" cy="22.5" r="20.5" fill="#D9D9D9"/>
<path d="M174.134 27.0002H171.231V17.6533H174.134V27.0002ZM172.681 16.3783C171.753 16.3783 171 15.6096 171 14.6814C171 14.2356 171.177 13.8081 171.492 13.4928C171.808 13.1776 172.235 13.0005 172.681 13.0005C173.127 13.0005 173.554 13.1776 173.87 13.4928C174.185 13.8081 174.362 14.2356 174.362 14.6814C174.362 15.6096 173.609 16.3783 172.681 16.3783ZM184.997 27.0002H182.101V22.4502C182.101 21.3658 182.079 19.9752 180.592 19.9752C179.082 19.9752 178.851 21.1533 178.851 22.3721V27.0002H175.952V17.6533H178.736V18.9283H178.776C179.164 18.1939 180.11 17.4189 181.523 17.4189C184.46 17.4189 185 19.3533 185 21.8658V27.0002H184.997Z" fill="black"/>
<path d="M131.253 18.0377C131.263 18.1887 131.263 18.3397 131.263 18.4907C131.263 23.0966 127.758 28.4038 121.35 28.4038C119.376 28.4038 117.543 27.832 116 26.8397C116.28 26.872 116.55 26.8828 116.841 26.8828C118.47 26.8828 119.97 26.3327 121.167 25.3943C119.635 25.3619 118.352 24.3587 117.909 22.978C118.125 23.0104 118.341 23.0319 118.567 23.0319C118.88 23.0319 119.193 22.9888 119.484 22.9133C117.888 22.5897 116.69 21.1874 116.69 19.4939V19.4507C117.154 19.7096 117.694 19.8714 118.265 19.893C117.327 19.2673 116.712 18.1995 116.712 16.9913C116.712 16.3441 116.884 15.7509 117.187 15.2331C118.902 17.3473 121.48 18.728 124.371 18.879C124.317 18.6201 124.284 18.3505 124.284 18.0808C124.284 16.1607 125.838 14.5967 127.768 14.5967C128.772 14.5967 129.678 15.0174 130.314 15.6969C131.101 15.5459 131.857 15.2547 132.525 14.8556C132.266 15.6646 131.716 16.3442 130.994 16.7756C131.695 16.7001 132.374 16.5059 133 16.2363C132.525 16.9266 131.932 17.5414 131.253 18.0377Z" fill="black"/>
<g clip-path="url(#clip1_12_134)">
<path d="M72.0036 19.9568C69.7321 19.9568 67.9 21.7604 67.9 23.9963C67.9 26.2322 69.7321 28.0357 72.0036 28.0357C74.275 28.0357 76.1071 26.2322 76.1071 23.9963C76.1071 21.7604 74.275 19.9568 72.0036 19.9568ZM72.0036 26.6225C70.5357 26.6225 69.3357 25.4447 69.3357 23.9963C69.3357 22.5479 70.5321 21.3701 72.0036 21.3701C73.475 21.3701 74.6714 22.5479 74.6714 23.9963C74.6714 25.4447 73.4714 26.6225 72.0036 26.6225ZM77.2321 19.7916C77.2321 20.3154 76.8036 20.7338 76.275 20.7338C75.7429 20.7338 75.3179 20.3119 75.3179 19.7916C75.3179 19.2713 75.7464 18.8494 76.275 18.8494C76.8036 18.8494 77.2321 19.2713 77.2321 19.7916ZM79.95 20.7479C79.8893 19.4857 79.5964 18.3678 78.6571 17.4467C77.7214 16.5256 76.5857 16.2373 75.3036 16.174C73.9821 16.1002 70.0214 16.1002 68.7 16.174C67.4214 16.2338 66.2857 16.5221 65.3464 17.4432C64.4071 18.3643 64.1179 19.4822 64.0536 20.7443C63.9786 22.0451 63.9786 25.9439 64.0536 27.2447C64.1143 28.5068 64.4071 29.6248 65.3464 30.5459C66.2857 31.467 67.4179 31.7553 68.7 31.8186C70.0214 31.8924 73.9821 31.8924 75.3036 31.8186C76.5857 31.7588 77.7214 31.4705 78.6571 30.5459C79.5928 29.6248 79.8857 28.5068 79.95 27.2447C80.025 25.9439 80.025 22.0486 79.95 20.7479ZM78.2428 28.6404C77.9643 29.3295 77.425 29.8604 76.7214 30.1381C75.6679 30.5494 73.1678 30.4545 72.0036 30.4545C70.8393 30.4545 68.3357 30.5459 67.2857 30.1381C66.5857 29.8639 66.0464 29.333 65.7643 28.6404C65.3464 27.6033 65.4429 25.1424 65.4429 23.9963C65.4429 22.8502 65.35 20.3857 65.7643 19.3521C66.0429 18.6631 66.5821 18.1322 67.2857 17.8545C68.3393 17.4432 70.8393 17.5381 72.0036 17.5381C73.1678 17.5381 75.6714 17.4467 76.7214 17.8545C77.4214 18.1287 77.9607 18.6596 78.2428 19.3521C78.6607 20.3893 78.5643 22.8502 78.5643 23.9963C78.5643 25.1424 78.6607 27.6068 78.2428 28.6404Z" fill="black"/>
</g>
<defs>
<clipPath id="clip0_12_134">
<rect width="12" height="19" fill="white" transform="translate(14 13)"/>
</clipPath>
<clipPath id="clip1_12_134">
<rect width="16" height="18" fill="white" transform="translate(64 15)"/>
</clipPath>
</defs>
</svg>
